<svg xmlns="http://www.w3.org/2000/svg" viewBox="0 0 1600 500" width="100%" height="100%">
  <defs>
    <linearGradient id="p1Grad" x1="0%" y1="0%" x2="100%" y2="100%">
      <stop offset="0%" stop-color="#1A0A1F" />
      <stop offset="100%" stop-color="#54152B" />
    </linearGradient>

    <clipPath id="mvArtClip">
      <polygon points="20,20 540,20 500,320 20,320" />
    </clipPath>
  </defs>

  <rect width="1600" height="500" fill="url(#p1Grad)" />

  <g transform="translate(40, 40)">
    <polygon points="0,0 1520,0 1460,420 0,420" fill="#1A0A1F" stroke="#E86A33" stroke-width="4" />

    <!-- UNIVERSE TITLE -->
    <polygon points="40,25 580,25 560,85 40,85" fill="#E86A33" stroke="#F5F1E8" stroke-width="2" />
    <text x="65" y="65" font-family="'Impact', sans-serif" font-size="34" font-weight="900" fill="#F5F1E8" letter-spacing="3">UNIVERSE 01 // MERAVYAPAR AI</text>

    <!-- PROMINENT FOREGROUND EMBED OF REFERENCE SVG #5: download (4).svg -->
    <g transform="translate(40, 100)">
      <g clip-path="url(#mvArtClip)" opacity="0.95">
        <image href="../reference/download (4).svg" x="0" y="-30" width="540" height="360" preserveAspectRatio="xMidYMid slice" />
      </g>
    </g>

    <!-- NARRATIVE TAGLINE & DESCRIPTION -->
    <g transform="translate(620, 110)">
      <text x="0" y="25" font-family="'Courier New', monospace" font-size="16" font-weight="900" fill="#F5B041">"Money leaves clues. Intelligent systems learn to follow them."</text>
      
      <g font-family="'Courier New', monospace" font-size="14" fill="#F5F1E8" transform="translate(0, 50)">
        <text x="0" y="0">AI Financial Autopilot for merchants parsing fragmented transactions,</text>
        <text x="0" y="25">evidence-driven reconciliation, receivables prioritization, and payment promises.</text>
      </g>

      <!-- FEATURE LIST -->
      <g transform="translate(0, 120)" font-family="'Courier New', monospace" font-size="14" fill="#F5F1E8">
        <circle cx="10" cy="0" r="4" fill="#E86A33" />
        <text x="25" y="4">Financial Intelligence Graph &amp; Transaction Evidence</text>

        <circle cx="10" cy="30" r="4" fill="#F5B041" />
        <text x="25" y="34">Receivables Prioritization &amp; Payment Promise Tracking</text>

        <circle cx="10" cy="60" r="4" fill="#F5F1E8" />
        <text x="25" y="64">Agentic Financial Analysis Pipeline</text>
      </g>

      <!-- TECH TAG BADGES -->
      <g transform="translate(0, 220)" font-family="'Courier New', monospace" font-size="12" fill="#F5F1E8">
        <rect x="0" y="0" width="110" height="30" fill="#2D112C" stroke="#E86A33" stroke-width="1.5" />
        <text x="55" y="20" text-anchor="middle">FASTAPI</text>

        <rect x="125" y="0" width="130" height="30" fill="#2D112C" stroke="#F5B041" stroke-width="1.5" />
        <text x="190" y="20" text-anchor="middle">LANGGRAPH</text>

        <rect x="270" y="0" width="130" height="30" fill="#2D112C" stroke="#F5F1E8" stroke-width="1.5" />
        <text x="335" y="20" text-anchor="middle">POSTGRESQL</text>
      </g>
    </g>
  </g>
</svg>
